<svg xmlns="http://www.w3.org/2000/svg" version="1.1" width="512" height="512" x="0" y="0" viewBox="0 0 24 24" style="enable-background:new 0 0 512 512" xml:space="preserve"><g transform="matrix(1.1999999999999997,0,0,1.1999999999999997,-2.3315387725830092,-2.4469799995422346)"><path fill="#797B86" fill-rule="evenodd" d="M20.614 5.649a1 1 0 0 1 .084 1.422L10.184 18.74a1 1 0 0 1-1.428.058l-6.084-5.727a1.008 1.008 0 0 1-.09-1.36 1.008 1.008 0 0 1 1.455-.126l4.72 4.246a1 1 0 0 0 1.412-.074l9.043-10.027a1 1 0 0 1 1.402-.082z" clip-rule="evenodd"></path></g></svg>